<svg width="424" height="220" viewBox="0 0 424 220" fill="none" xmlns="http://www.w3.org/2000/svg"><path d="M0.587583 40.3625C-2.24451 19.3638 14.0847 0.684387 35.2735 0.684387H345.892C361.792 0.684387 375.694 11.402 379.74 26.7787L412.041 149.548C417.584 170.613 402.744 191.57 381.034 193.338L58.2165 219.622C39.666 221.132 23.1779 207.86 20.6903 189.415L0.587583 40.3625Z" fill="#2EC4B6"/><path d="M51.2849 62.1157H70.5774C68.5244 79.6955 54.5207 92.1329 35.8265 92.1329C15.5415 92.1329 0.762817 77.6248 0.762817 57.5768C0.762817 37.5288 15.5415 23.0208 35.8129 23.0208C54.5071 23.0208 68.5108 35.4582 70.5638 53.0379H51.2713C49.7078 44.9474 44.0247 39.8051 35.7993 39.8051C26.2006 39.8051 19.9465 46.8123 19.9465 57.5768C19.9465 68.3413 26.2142 75.3485 35.7993 75.3485C44.0247 75.3485 49.7078 70.22 51.2713 62.1157H51.2849Z" fill="#C4423F"/><path d="M73.5277 69.6303H92.2219C94.0846 74.4709 98.8839 76.6375 107.3 76.6375C113.962 76.6375 117.388 74.7589 117.388 71.509C117.388 68.0534 116.504 67.4637 102.215 65.9827C81.658 63.8161 75.3903 58.4819 75.3903 44.9474C75.3903 31.4129 86.0494 23.0208 103.683 23.0208C121.317 23.0208 132.656 32.0026 134.614 45.0434H115.62C113.567 40.5045 109.747 38.5298 103.384 38.5298C97.0213 38.5298 94.1797 40.5045 94.1797 43.4664C94.1797 47.2237 95.2538 47.5117 109.448 49.0886C129.719 51.365 136.177 56.3015 136.177 69.9183C136.177 84.5361 125.708 92.1329 106.117 92.1329C86.5253 92.1329 75.771 84.728 73.5141 69.6166L73.5277 69.6303Z" fill="#C4423F"/><path d="M140.093 69.6303H158.787C160.65 74.4709 165.449 76.6375 173.865 76.6375C180.527 76.6375 183.953 74.7589 183.953 71.509C183.953 68.0534 183.069 67.4637 168.78 65.9827C148.223 63.8161 141.956 58.4819 141.956 44.9474C141.956 31.4129 152.628 23.0208 170.248 23.0208C187.869 23.0208 199.221 32.0026 201.179 45.0434H182.186C180.133 40.5045 176.312 38.5298 169.949 38.5298C163.586 38.5298 160.745 40.5045 160.745 43.4664C160.745 47.2237 161.819 47.5117 176.013 49.0886C196.284 51.365 202.742 56.3015 202.742 69.9183C202.742 84.5361 192.274 92.1329 172.682 92.1329C153.09 92.1329 142.336 84.728 140.079 69.6166L140.093 69.6303Z" fill="#C4423F"/><path d="M285.473 38.6258L252.381 74.3749H285.473V91.1593H225.855V76.5415L258.948 40.7924H227.419V24.008H285.473V38.6258Z" fill="#C4423F"/><path d="M312.556 40.7924V49.5823H346.722V65.0777H312.556V74.3612H349.849V91.1455H293.753V24.008H349.849V40.7924H312.556Z" fill="#C4423F"/><path d="M420.031 24.008V91.1455H403.39L377.15 52.4345V91.1455H358.945V24.008H380.576L401.826 55.4102V24.008H420.031Z" fill="#C4423F"/><path d="M70.8629 144.516C70.8629 164.564 56.0842 179.072 35.8129 179.072C15.5415 179.072 0.762817 164.564 0.762817 144.516C0.762817 124.468 15.5415 109.959 35.8129 109.959C51.8695 109.959 64.4049 119.037 69.0003 132.764H48.3482C45.6019 128.91 41.1968 126.744 35.8129 126.744C26.2142 126.744 19.9601 133.751 19.9601 144.516C19.9601 155.28 26.2278 162.287 35.8129 162.287C43.2498 162.287 47.7636 159.421 49.9117 154.389H35.0379V139.277H70.8629V144.516Z" fill="#FED955"/><path d="M119.25 166.538H94.4789L90.3729 178.084H71.0804L97.3204 110.947H117.293L143.533 178.084H123.37L119.264 166.538H119.25ZM113.771 150.933L106.919 131.379L99.9716 150.933H113.771Z" fill="#FED955"/><path d="M177.468 155.28H168.753V178.084H149.95V110.947H187.447C201.641 110.947 210.356 119.435 210.356 133.463C210.356 143.734 205.652 150.645 197.535 153.607L211.92 178.098H190.085L177.454 155.294L177.468 155.28ZM168.753 139.181H185.884C189.31 139.181 191.172 137.111 191.172 133.449C191.172 129.788 189.31 127.717 185.884 127.717H168.753V139.168V139.181Z" fill="#FED955"/><path d="M220.186 110.947H248.084C269.525 110.947 282.645 123.686 282.645 144.516C282.645 165.345 269.525 178.084 248.084 178.084H220.186V110.947ZM246.521 161.3C258.472 161.3 263.461 156.267 263.461 144.516C263.461 132.764 258.472 127.731 246.521 127.731H238.989V161.3H246.521Z" fill="#FED955"/><path d="M310.408 127.731V136.521H344.574V152.016H310.408V161.3H347.701V178.084H291.605V110.947H347.701V127.731H310.408Z" fill="#FED955"/><path d="M419.841 110.947V178.084H403.199L376.959 139.373V178.084H358.755V110.947H380.385L401.636 142.349V110.947H419.841Z" fill="#FED955"/><path d="M54.0041 64.872H73.2966C71.2436 82.4517 57.2399 94.8891 38.5456 94.8891C18.2743 94.8891 3.49561 80.3811 3.49561 60.3331C3.49561 40.2851 18.2607 25.7633 38.5321 25.7633C57.2263 25.7633 71.23 38.2007 73.283 55.7804H53.9905C52.427 47.6899 46.7439 42.5477 38.5185 42.5477C28.9198 42.5477 22.6657 49.5549 22.6657 60.3194C22.6657 71.0838 28.9334 78.091 38.5185 78.091C46.7439 78.091 52.427 72.9625 53.9905 64.8583L54.0041 64.872Z" stroke="#231F20"/><path d="M76.2468 72.3728H94.9411C96.8037 77.2134 101.603 79.38 110.019 79.38C116.681 79.38 120.107 77.5014 120.107 74.2515C120.107 70.7959 119.223 70.2062 104.934 68.7253C84.3772 66.5586 78.1095 61.2244 78.1095 47.6899C78.1095 34.1555 88.7822 25.7633 106.402 25.7633C124.023 25.7633 135.375 34.7451 137.333 47.7859H118.34C116.287 43.247 112.466 41.2724 106.103 41.2724C99.7404 41.2724 96.8989 43.247 96.8989 46.209C96.8989 49.9662 97.973 50.2542 112.167 51.8312C132.438 54.1075 138.896 59.0441 138.896 72.6608C138.896 87.2786 128.428 94.8754 108.836 94.8754C89.2445 94.8754 78.4902 87.4706 76.2332 72.3591L76.2468 72.3728Z" stroke="#231F20"/><path d="M142.826 72.3728H161.52C163.382 77.2134 168.182 79.38 176.598 79.38C183.26 79.38 186.686 77.5014 186.686 74.2515C186.686 70.7959 185.802 70.2062 171.513 68.7253C150.956 66.5586 144.688 61.2244 144.688 47.6899C144.688 34.1555 155.361 25.7633 172.981 25.7633C190.601 25.7633 201.954 34.7451 203.912 47.7859H184.918C182.865 43.247 179.045 41.2724 172.682 41.2724C166.319 41.2724 163.478 43.247 163.478 46.209C163.478 49.9662 164.552 50.2542 178.746 51.8312C199.017 54.1075 205.475 59.0441 205.475 72.6608C205.475 87.2786 195.006 94.8754 175.415 94.8754C155.823 94.8754 145.069 87.4706 142.812 72.3591L142.826 72.3728Z" stroke="#231F20"/><path d="M288.192 41.3684L255.1 77.1174H288.192V93.9018H228.574V79.284L261.667 43.535H230.138V26.7506H288.192V41.3684Z" stroke="#231F20"/><path d="M315.275 43.535V52.3248H349.441V67.8202H315.275V77.1037H352.568V93.8881H296.472V26.7506H352.568V43.535H315.275Z" stroke="#231F20"/><path d="M422.764 26.7506V93.8881H406.122L379.882 55.1771V93.8881H361.678V26.7506H383.309L404.559 58.1527V26.7506H422.764Z" stroke="#231F20"/><path d="M73.582 147.258C73.582 167.306 58.8034 181.814 38.532 181.814C18.2606 181.814 3.48193 167.306 3.48193 147.258C3.48193 127.21 18.2606 112.702 38.532 112.702C54.5886 112.702 67.124 121.78 71.7194 135.506H51.0673C48.321 131.653 43.9159 129.486 38.532 129.486C28.9333 129.486 22.6792 136.494 22.6792 147.258C22.6792 158.023 28.9469 165.03 38.532 165.03C45.9689 165.03 50.4827 162.164 52.6308 157.131H37.757V142.02H73.582V147.258Z" stroke="#231F20"/><path d="M121.97 169.281H97.198L93.0921 180.827H73.7996L100.04 113.689H120.012L146.252 180.827H126.089L121.983 169.281H121.97ZM116.491 153.676L109.638 134.121L102.691 153.676H116.491Z" stroke="#231F20"/><path d="M180.187 158.023H171.472V180.827H152.669V113.689H190.166C204.36 113.689 213.075 122.177 213.075 136.206C213.075 146.476 208.371 153.388 200.254 156.35L214.639 180.841H192.804L180.173 158.036L180.187 158.023ZM171.472 141.924H188.603C192.029 141.924 193.892 139.853 193.892 136.192C193.892 132.531 192.029 130.46 188.603 130.46H171.472V141.91V141.924Z" stroke="#231F20"/><path d="M222.919 113.689H250.817C272.258 113.689 285.378 126.428 285.378 147.258C285.378 168.088 272.258 180.827 250.817 180.827H222.919V113.689ZM249.254 164.042C261.205 164.042 266.194 159.01 266.194 147.258C266.194 135.506 261.205 130.474 249.254 130.474H241.722V164.042H249.254Z" stroke="#231F20"/><path d="M313.127 130.474V139.264H347.293V154.759H313.127V164.042H350.42V180.827H294.324V113.689H350.42V130.474H313.127Z" stroke="#231F20"/><path d="M422.56 113.689V180.827H405.918L379.679 142.116V180.827H361.474V113.689H383.105L404.355 145.091V113.689H422.56Z" stroke="#231F20"/></svg>